<svg xmlns="http://www.w3.org/2000/svg" width="1400.782" height="437.562" viewBox="0 0 2053.782 637.562">
  <path id="Path_44" data-name="Path 44" d="M832.04,2.175q15.164,0,22.087,6.593T861.05,25.91a48.147,48.147,0,0,1-10.219,30.329q-10.22,13.186-31.977,13.846-52.086.659-93.623-7.912-46.152,98.239-111.1,163.182T485.9,290.3q-58.02,0-87.03-61.646T365.9,63.491q-39.559,114.722-89.338,170.764T170.742,290.3q-63.295,0-95.6-78.789T42.834-.463q0-96.92,17.142-212.96,4.615-32.966,16.813-45.823t38.57-12.857q19.78,0,30.658,8.571T156.9-231.884q0,4.615-1.319,17.8Q135.8-78.922,135.8,16.02q0,88.349,15.164,136.479t40.878,48.13q23.076,0,55.713-48.46T312.5,8.438Q344.8-86.834,367.219-218.7q5.274-30.329,19.45-41.867T425.24-272.1q20.439,0,30,8.9t9.56,26.7a79.977,79.977,0,0,1-1.319,16.483A1267.4,1267.4,0,0,0,445.019-5.078q0,73.185,4.945,116.7t19.12,66.262q14.175,22.747,41.208,22.747,31.647,0,70.547-47.8T652.046,33.822Q611.827,8.768,591.388-31.121T570.949-123.1q0-52.086,16.153-88.019t44.174-53.735q28.021-17.8,62.306-17.8,42.2,0,66.921,30.329t24.725,83.074q0,74.5-32.307,165.489Q786.547,2.175,832.04,2.175Zm-194.5-129.886q0,64.613,41.537,95.6,25.713-73.844,25.713-121.974,0-27.691-7.253-40.548t-19.78-12.857q-17.8,0-29.01,20.769T637.541-127.711Zm528.775,212.3q8.571,0,13.186,8.571t4.615,21.758q0,31.647-19.12,37.581-39.559,13.846-87.03,15.824-12.527,55.383-49.449,88.679t-83.734,33.3q-39.559,0-67.58-19.12a121.44,121.44,0,0,1-42.526-50.768q-14.505-31.647-14.505-68.569,0-50.108,19.12-89.338T892.038,1.186a132.833,132.833,0,0,1,74.5-22.087q50.108,0,80.767,34.614t35.933,85.382q30.988-1.978,73.844-13.186A38.745,38.745,0,0,1,1166.315,84.59ZM950.058,220.409q21.1,0,36.592-17.142t20.769-49.449A91.02,91.02,0,0,1,976.1,117.556a107.352,107.352,0,0,1-10.879-47.471,114.253,114.253,0,0,1,1.978-21.1h-3.3q-26.373,0-43.845,25.384t-17.472,71.536q0,36.263,14.175,55.383T950.058,220.409ZM1207.193,290.3q-25.054,0-35.274-26.373T1161.7,179.532q0-85.712,24.395-162.852,5.934-19.12,19.45-28.021t37.911-8.9q13.187,0,18.461,3.3t5.275,12.527q0,10.549-9.89,47.471-6.593,26.373-10.549,46.152a472.959,472.959,0,0,0-6.593,48.79q21.757-56.7,48.79-92.3t53.075-50.768q26.043-15.164,47.8-15.164,42.856,0,42.856,42.856,0,8.571-5.934,41.537-5.275,26.373-5.274,32.966,0,23.076,16.483,23.076,18.461,0,47.471-29.01,8.571-8.571,17.8-8.571,8.571,0,13.516,7.582t4.945,20.109q0,24.395-13.186,38.241a178.626,178.626,0,0,1-43.186,32.636A107.668,107.668,0,0,1,1412.9,194.7q-34.944,0-53.075-17.8t-18.131-48.13a100.622,100.622,0,0,1,1.978-19.78q1.319-13.186,1.319-17.8,0-10.549-7.252-10.549-9.89,0-26.043,22.087t-31.977,58.35A473.592,473.592,0,0,0,1254,237.552q-7.253,30.988-16.813,41.867T1207.193,290.3Zm667.232-150.325q8.571,0,13.516,7.912t4.945,21.758q0,26.373-12.527,40.878-29.669,36.263-60,58.02T1748.495,290.3q-50.768,0-81.756-29.01t-30.988-77.14q0-25.713,26.373-36.922,29.01-12.527,41.537-26.7t12.527-34.614q0-11.868-4.945-17.8a15.286,15.286,0,0,0-12.2-5.934q-17.8,0-39.23,25.713t-39.889,66.262a474.715,474.715,0,0,0-29.01,83.4q-7.252,30.988-16.813,41.867t-30,10.879q-20.439,0-30-14.835T1501.25,229.64q-3.3-30.988-3.3-90.986,0-101.535,20.769-211.642t61.317-184.939q40.548-74.833,97.25-74.833,30.329,0,49.119,26.043t18.791,67.58q0,66.591-38.9,138.128T1579.709,66.129q-1.978,34.285-1.978,70.547,31.647-82.415,72.525-119.667t76.481-37.252q32.966,0,53.075,22.417t20.109,55.383a125.647,125.647,0,0,1-18.461,66.591q-18.461,30.329-63.295,54.064,2.637,17.8,16.153,28.68t32.637,10.879q20.439,0,39.559-15.824t50.108-52.746Q1864.535,139.972,1874.425,139.972Zm-210.982-407.46q-11.868,0-26.373,33.955t-28.021,91.645a1223.886,1223.886,0,0,0-22.087,125.6,471.819,471.819,0,0,0,67.58-104.832q26.7-56.7,26.7-102.854,0-21.1-4.615-32.307T1663.443-267.487ZM1995.08,304.8q-34.285,0-52.416-15.824t-18.131-35.6q0-17.142,12.527-29.669t36.922-12.527a144.676,144.676,0,0,1,20.109,1.648q11.538,1.648,17.472,2.308a84.877,84.877,0,0,0-7.582-32.307,161.407,161.407,0,0,0-17.472-29.34q-10.549-14.175-19.78-24.724-20.439,38.9-40.548,64.613a482.951,482.951,0,0,1-43.845,48.79q-11.868,11.868-25.054,11.868a21.647,21.647,0,0,1-17.142-7.582q-6.593-7.582-6.593-18.791,0-13.186,9.23-24.395l8.571-10.549q36.263-44.834,54.724-73.844a425.955,425.955,0,0,0,24.065-45.493q12.2-26.373,31.977-71.866,12.527-29.01,52.086-29.01,18.461,0,25.714,3.3t7.252,10.549q0,3.956-2.637,12.527a95.294,95.294,0,0,1-7.252,17.142q-11.868,23.735-11.868,40.218,0,9.89,6.923,21.758t21.428,29.669q21.1,27.691,31.977,47.141a85.654,85.654,0,0,1,10.879,42.526,112.033,112.033,0,0,1-12.857,52.416,104.749,104.749,0,0,1-35.933,39.889Q2024.75,304.8,1995.08,304.8Z" transform="translate(-42.834 332.76)" fill="#ddd" opacity="0.35"/>
</svg>
