<svg id="_003-facebook" data-name="003-facebook" xmlns="http://www.w3.org/2000/svg" width="64.465" height="64.465" viewBox="0 0 64.465 64.465">
  <path id="Path_50" data-name="Path 50" d="M291.664,508.668q-.4.066-.809.121Q291.261,508.734,291.664,508.668Zm0,0" transform="translate(-254.234 -444.623)" fill="#333"/>
  <path id="Path_51" data-name="Path 51" d="M299.725,507.793c-.128.024-.257.045-.385.067C299.468,507.838,299.6,507.817,299.725,507.793Zm0,0" transform="translate(-261.65 -443.858)" fill="#333"/>
  <path id="Path_52" data-name="Path 52" d="M278.557,510.34q-.471.053-.948.093Q278.085,510.394,278.557,510.34Zm0,0" transform="translate(-242.656 -446.084)" fill="#333"/>
  <path id="Path_53" data-name="Path 53" d="M286.9,509.738c-.151.02-.3.039-.454.057C286.6,509.777,286.749,509.758,286.9,509.738Zm0,0" transform="translate(-250.38 -445.558)" fill="#333"/>
  <path id="Path_54" data-name="Path 54" d="M307,506.41l-.34.071Zm0,0" transform="translate(-268.052 -442.649)" fill="#333"/>
  <path id="Path_55" data-name="Path 55" d="M324.759,502.113l-.274.076Zm0,0" transform="translate(-283.629 -438.893)" fill="#333"/>
  <path id="Path_56" data-name="Path 56" d="M319.358,503.543l-.3.078Zm0,0" transform="translate(-278.887 -440.143)" fill="#333"/>
  <path id="Path_57" data-name="Path 57" d="M312.384,505.254l-.318.071Zm0,0" transform="translate(-272.775 -441.638)" fill="#333"/>
  <path id="Path_58" data-name="Path 58" d="M273.99,511.09q-.255.021-.51.038Q273.735,511.111,273.99,511.09Zm0,0" transform="translate(-239.047 -446.74)" fill="#333"/>
  <path id="Path_59" data-name="Path 59" d="M64.465,32.232A32.232,32.232,0,1,0,32.232,64.465c.189,0,.378,0,.567-.007V39.366H25.874V31.3H32.8V25.357c0-6.888,4.2-10.636,10.349-10.636a57,57,0,0,1,6.208.317v7.2H45.119c-3.342,0-3.99,1.589-3.99,3.919V31.3h7.992l-1.042,8.07H41.13V63.22A32.25,32.25,0,0,0,64.465,32.233Zm0,0" fill="#333"/>
  <path id="Path_60" data-name="Path 60" d="M265.9,511.43q-.5.032-1.01.05Q265.4,511.463,265.9,511.43Zm0,0" transform="translate(-231.539 -447.037)" fill="#333"/>
  <path id="Path_61" data-name="Path 61" d="M261.039,511.836q-.267.009-.535.013Q260.772,511.845,261.039,511.836Zm0,0" transform="translate(-227.704 -447.392)" fill="#333"/>
</svg>
