<svg xmlns="http://www.w3.org/2000/svg" width="82.507" height="107.617" viewBox="0 0 82.507 107.617">
  <g id="_006-location" data-name="006-location" transform="translate(-59.746)">
    <path id="Path_31" data-name="Path 31" d="M142.252,41.253c0,22.779-27.209,62.777-41.253,62.777-14.654,0-41.253-40-41.253-62.777a41.253,41.253,0,0,1,82.506,0Z" transform="translate(0)" fill="#e55934"/>
    <path id="Path_32" data-name="Path 32" d="M101,5.381a41.254,41.254,0,0,1,41.142,38.376c.068-.852.111-1.691.111-2.5a41.253,41.253,0,0,0-82.507,0c0,.816.043,1.661.109,2.518A41.255,41.255,0,0,1,101,5.381Z" transform="translate(0)" fill="#ea7a5d"/>
    <circle id="Ellipse_5" data-name="Ellipse 5" cx="28.698" cy="28.698" r="28.698" transform="translate(72.301 10.761)" fill="#f2f2f2"/>
    <path id="Path_33" data-name="Path 33" d="M193.092,498.629H155.426a1.794,1.794,0,1,1,0-3.587h37.666a1.794,1.794,0,0,1,0,3.587Z" transform="translate(-74.157 -391.012)" fill="#ac4327"/>
    <g id="Group_8" data-name="Group 8" transform="translate(86.65 23.317)">
      <path id="Path_34" data-name="Path 34" d="M292.423,126.667c0-3.962-2.409-7.174-5.381-7.174s-5.381,3.212-5.381,7.174c0,3.158,1.542,5.811,3.67,6.769a1.716,1.716,0,0,0-.082.405v14.349a1.794,1.794,0,1,0,3.587,0V133.842a1.723,1.723,0,0,0-.082-.405C290.88,132.479,292.423,129.826,292.423,126.667Z" transform="translate(-261.931 -117.699)" fill="#f5bb00"/>
      <path id="Path_35" data-name="Path 35" d="M206.638,197.175a1.793,1.793,0,0,1-1.794-1.794V181.033a1.794,1.794,0,0,1,3.588,0v14.349A1.793,1.793,0,0,1,206.638,197.175Z" transform="translate(-201.256 -164.89)" fill="#f5bb00"/>
      <path id="Path_36" data-name="Path 36" d="M189.566,123.512a1.793,1.793,0,0,1-1.794-1.794V112.75a1.794,1.794,0,1,1,3.588,0v8.968A1.793,1.793,0,0,1,189.566,123.512Z" transform="translate(-187.772 -110.956)" fill="#f5bb00"/>
      <path id="Path_37" data-name="Path 37" d="M223.708,123.512a1.793,1.793,0,0,1-1.794-1.794V112.75a1.794,1.794,0,1,1,3.587,0v8.968A1.793,1.793,0,0,1,223.708,123.512Z" transform="translate(-214.739 -110.956)" fill="#f5bb00"/>
      <path id="Path_38" data-name="Path 38" d="M222.113,365.358l2.79,5.656,6.24.906-4.516,4.4,1.067,6.215-5.582-2.934-5.582,2.934,1.068-6.215-4.516-4.4,6.24-.906Z" transform="translate(-207.763 -311.897)" fill="#f5bb00"/>
    </g>
    <g id="Group_9" data-name="Group 9" transform="translate(61.539 104.03)">
      <path id="Path_39" data-name="Path 39" d="M80.836,498.629H70.074a1.794,1.794,0,1,1,0-3.587H80.836a1.794,1.794,0,0,1,0,3.587Z" transform="translate(-68.28 -495.042)" fill="#ac4327"/>
      <path id="Path_40" data-name="Path 40" d="M379.57,498.629H368.808a1.794,1.794,0,0,1,0-3.587H379.57a1.794,1.794,0,0,1,0,3.587Z" transform="translate(-304.238 -495.042)" fill="#ac4327"/>
    </g>
    <path id="Path_41" data-name="Path 41" d="M249.315,237.624a1.793,1.793,0,0,1-1.794-1.794v-3.587a1.794,1.794,0,1,1,3.588,0v3.587A1.794,1.794,0,0,1,249.315,237.624Z" transform="translate(-148.315 -182.022)" fill="#f5bb00"/>
  </g>
</svg>
