<svg id="_001-youtube" data-name="001-youtube" xmlns="http://www.w3.org/2000/svg" width="64.465" height="64.465" viewBox="0 0 64.465 64.465">
  <path id="Path_45" data-name="Path 45" d="M224.113,220.117l10.485-6.039-10.485-6.039Zm0,0" transform="translate(-195.895 -181.845)" fill="#333"/>
  <path id="Path_46" data-name="Path 46" d="M32.232,0A32.232,32.232,0,1,0,64.465,32.232,32.236,32.236,0,0,0,32.232,0Zm20.14,32.265s0,6.537-.829,9.689a5.047,5.047,0,0,1-3.551,3.55c-3.152.83-15.761.83-15.761.83s-12.576,0-15.761-.863a5.048,5.048,0,0,1-3.551-3.551c-.83-3.119-.83-9.689-.83-9.689s0-6.536.83-9.689a5.15,5.15,0,0,1,3.551-3.583c3.152-.83,15.761-.83,15.761-.83s12.609,0,15.761.863a5.048,5.048,0,0,1,3.551,3.551c.863,3.152.829,9.721.829,9.721Zm0,0" fill="#333"/>
</svg>
