<svg id="_002-instagram" data-name="002-instagram" xmlns="http://www.w3.org/2000/svg" width="64.465" height="64.465" viewBox="0 0 64.465 64.465">
  <path id="Path_47" data-name="Path 47" d="M219.339,213.169A6.169,6.169,0,1,1,213.169,207,6.169,6.169,0,0,1,219.339,213.169Zm0,0" transform="translate(-180.937 -180.937)" fill="#333"/>
  <path id="Path_48" data-name="Path 48" d="M165.087,139.746a6.129,6.129,0,0,0-3.513-3.513,10.241,10.241,0,0,0-3.436-.637c-1.952-.089-2.537-.108-7.479-.108s-5.528.019-7.479.108a10.247,10.247,0,0,0-3.436.637,6.132,6.132,0,0,0-3.513,3.513,10.243,10.243,0,0,0-.637,3.437c-.089,1.952-.108,2.537-.108,7.479s.019,5.527.108,7.479a10.24,10.24,0,0,0,.637,3.436,6.129,6.129,0,0,0,3.513,3.513,10.228,10.228,0,0,0,3.437.637c1.952.089,2.536.108,7.479.108s5.528-.019,7.479-.108a10.228,10.228,0,0,0,3.437-.637,6.129,6.129,0,0,0,3.513-3.513,10.25,10.25,0,0,0,.637-3.436c.089-1.952.108-2.537.108-7.479s-.019-5.528-.108-7.479A10.228,10.228,0,0,0,165.087,139.746Zm-14.428,20.42a9.5,9.5,0,1,1,9.5-9.5A9.5,9.5,0,0,1,150.659,160.166ZM160.538,143a2.221,2.221,0,1,1,2.221-2.221A2.221,2.221,0,0,1,160.538,143Zm0,0" transform="translate(-118.426 -118.43)" fill="#333"/>
  <path id="Path_49" data-name="Path 49" d="M32.232,0A32.232,32.232,0,1,0,64.465,32.232,32.236,32.236,0,0,0,32.232,0Zm18.4,39.863a13.579,13.579,0,0,1-.86,4.493,9.464,9.464,0,0,1-5.413,5.413,13.589,13.589,0,0,1-4.492.86c-1.974.09-2.6.112-7.631.112s-5.657-.022-7.631-.112a13.589,13.589,0,0,1-4.492-.86A9.464,9.464,0,0,1,14.7,44.356a13.576,13.576,0,0,1-.86-4.492c-.091-1.974-.112-2.6-.112-7.631s.021-5.657.112-7.631a13.581,13.581,0,0,1,.86-4.493A9.47,9.47,0,0,1,20.109,14.7a13.592,13.592,0,0,1,4.493-.86c1.974-.09,2.6-.112,7.631-.112s5.657.022,7.631.112a13.6,13.6,0,0,1,4.493.859,9.466,9.466,0,0,1,5.413,5.414A13.578,13.578,0,0,1,50.63,24.6c.09,1.974.111,2.6.111,7.631S50.72,37.889,50.629,39.863Zm0,0" fill="#333"/>
</svg>
