<svg xmlns="http://www.w3.org/2000/svg" width="108" height="110.5" viewBox="0 0 108 110.5">
  <g id="_004-eat" data-name="004-eat" transform="translate(-5.771)">
    <path id="Path_1" data-name="Path 1" d="M284.153,286.635c-11.312,0-20.483,7.448-20.483,20.483h7.448a13.034,13.034,0,1,1,26.069,0h7.448C304.635,294.083,295.465,286.635,284.153,286.635Z" transform="translate(-202.037 -224.548)" fill="#ef9b85"/>
    <path id="Path_2" data-name="Path 2" d="M311.089,328.47a5.218,5.218,0,0,1,5.586,5.586h7.448a13.035,13.035,0,1,0-26.069,0H305.5A5.219,5.219,0,0,1,311.089,328.47Z" transform="translate(-228.973 -251.487)" fill="#e55934"/>
    <path id="Path_3" data-name="Path 3" d="M338.028,355.408a5.218,5.218,0,0,0-5.586,5.586h11.172A5.218,5.218,0,0,0,338.028,355.408Z" transform="translate(-255.913 -278.425)" fill="#ef9b85"/>
    <path id="Path_4" data-name="Path 4" d="M374.846,303.838a6.641,6.641,0,0,0-2.534-.311c0-.045,0-.087,0-.132,0-9.256-4.169-16.759-9.31-16.759s-9.31,7.5-9.31,16.759c0,.071.005.138.005.209a6.726,6.726,0,0,0-3.387.5c-3.763,1.659-6.232,6.437-4.367,10.672,1.624,3.678,5.886,5.728,7.748,5.117v9.567h14.9v-9.539a9.1,9.1,0,0,0,9.686-5.759C379.764,309.783,378.742,305.16,374.846,303.838Z" transform="translate(-265.993 -224.549)" fill="#f5bb00"/>
    <g id="Group_3" data-name="Group 3" transform="translate(79.317 62.087)">
      <path id="Path_5" data-name="Path 5" d="M387.747,445.781a5.232,5.232,0,0,1-3.724-.831v4.812h3.724Z" transform="translate(-375.638 -410.658)" fill="#f7c933"/>
      <path id="Path_6" data-name="Path 6" d="M349.674,316.64c-1.868-4.234.6-9.012,4.367-10.671a6.719,6.719,0,0,1,3.387-.5c0-.071-.007-.138-.007-.209,0-9.256,4.169-16.759,9.31-16.759a5.15,5.15,0,0,1,.59.054,6.3,6.3,0,0,0-4.315-1.916c-5.141,0-9.31,7.5-9.31,16.759,0,.071.005.138.005.209a6.725,6.725,0,0,0-3.387.5c-3.763,1.659-6.232,6.437-4.367,10.672a9.266,9.266,0,0,0,6.258,5.13A9.065,9.065,0,0,1,349.674,316.64Z" transform="translate(-345.311 -286.635)" fill="#f7c933"/>
      <path id="Path_7" data-name="Path 7" d="M488.306,369.686a5.463,5.463,0,0,0-1.236-1.013c.007.283.024.564.024.851,0,.045,0,.088,0,.132A7.627,7.627,0,0,1,488.306,369.686Z" transform="translate(-456.364 -350.903)" fill="#f7c933"/>
      <path id="Path_8" data-name="Path 8" d="M399.667,363.229,395.2,366.58v-9.31a1.862,1.862,0,1,0-3.724,0v9.31l-4.469-3.352a1.862,1.862,0,0,0-2.233,2.979l6.7,5.027v6.517a1.862,1.862,0,0,0,3.724,0v-6.517l6.7-5.027a1.863,1.863,0,0,0-2.237-2.98Z" transform="translate(-375.641 -340.511)" fill="#f7c933"/>
    </g>
    <path id="Path_9" data-name="Path 9" d="M109.983,483.208H9.562a3.768,3.768,0,0,1-3.789-3.724V475.76h108v3.724A3.769,3.769,0,0,1,109.983,483.208Z" transform="translate(-0.002 -372.708)" fill="#b88c00"/>
    <g id="Group_4" data-name="Group 4" transform="translate(29.979 103.051)">
      <rect id="Rectangle_7" data-name="Rectangle 7" width="7.448" height="7.448" fill="#c6a333"/>
      <rect id="Rectangle_8" data-name="Rectangle 8" width="3.724" height="7.448" transform="translate(11.171)" fill="#c6a333"/>
      <rect id="Rectangle_9" data-name="Rectangle 9" width="3.724" height="7.448" transform="translate(18.619)" fill="#c6a333"/>
    </g>
    <path id="Path_10" data-name="Path 10" d="M84.28,274.2,59.772,256.688l0,.005a29.511,29.511,0,0,0-54,16.47c0,16.3,13.211,20.766,29.51,20.766,1.386,0,2.737-.047,4.071-.115l-.063.115,43.123-3.451a3.723,3.723,0,0,0,3.428-3.711v-9.541A3.721,3.721,0,0,0,84.28,274.2Z" transform="translate(-0.001 -190.877)" fill="#ac4327"/>
    <path id="Path_11" data-name="Path 11" d="M35.281,247.378A29.489,29.489,0,0,1,64.7,274.994c.039-.6.095-1.192.095-1.83a29.51,29.51,0,0,0-59.02,0c0,.639.056,1.229.095,1.83A29.489,29.489,0,0,1,35.281,247.378Z" transform="translate(0 -190.877)" fill="#bd6952"/>
    <path id="Path_12" data-name="Path 12" d="M84.72,295.5c0,12.092-9.8,15.407-21.894,15.407S40.932,307.59,40.932,295.5a21.894,21.894,0,1,1,43.788,0Z" transform="translate(-27.545 -214.34)" fill="#e55934"/>
    <g id="Group_5" data-name="Group 5" transform="translate(26.254 73.861)">
      <path id="Path_13" data-name="Path 13" d="M110.472,340.993a4.741,4.741,0,0,0-2.689.836,4.755,4.755,0,0,0-7.448,3.923c0,2.629,2.13,3.35,4.759,3.35a8.124,8.124,0,0,0,2.689-.38,8.131,8.131,0,0,0,2.689.38c2.629,0,4.759-.721,4.759-3.35A4.758,4.758,0,0,0,110.472,340.993Z" transform="translate(-100.335 -340.993)" fill="#faf3f1"/>
      <path id="Path_14" data-name="Path 14" d="M403.356,379.119a6.517,6.517,0,0,0-13.035,0,6.708,6.708,0,0,0,.095.931H375.425V387.5h14.991a6.675,6.675,0,0,0-.095.931,6.517,6.517,0,1,0,11.068-4.655A6.487,6.487,0,0,0,403.356,379.119Z" transform="translate(-315.839 -365.755)" fill="#faf3f1"/>
    </g>
    <path id="Path_15" data-name="Path 15" d="M278.267,372.653a14.873,14.873,0,0,0,12.888,22.322,14.873,14.873,0,0,0-12.888-22.322Z" transform="translate(-211.906 -291.935)" fill="#9bc53d"/>
    <path id="Path_16" data-name="Path 16" d="M310.735,423.152a1.859,1.859,0,0,1-1.614-.931L302.6,410.933a1.862,1.862,0,0,1,3.225-1.862l6.517,11.288a1.862,1.862,0,0,1-1.611,2.793Z" transform="translate(-232.341 -319.735)" fill="#afd164"/>
    <path id="Path_17" data-name="Path 17" d="M200.9,372.653a14.873,14.873,0,0,0,12.887,22.322A14.873,14.873,0,0,0,200.9,372.653Z" transform="translate(-151.297 -291.935)" fill="#9bc53d"/>
    <path id="Path_18" data-name="Path 18" d="M233.366,423.149a1.859,1.859,0,0,1-1.615-.931l-6.517-11.288a1.862,1.862,0,0,1,3.225-1.862l6.517,11.288a1.862,1.862,0,0,1-1.61,2.793Z" transform="translate(-171.731 -319.732)" fill="#afd164"/>
    <g id="Group_6" data-name="Group 6" transform="translate(23.645 0)">
      <path id="Path_19" data-name="Path 19" d="M103.935,39.742a1.858,1.858,0,0,1-1.348-.577l-9.476-9.943a17.882,17.882,0,0,1,.864-25.285,14.7,14.7,0,0,1,20.743.722,12.114,12.114,0,0,1-.594,17.122,10.074,10.074,0,0,1-14.222-.5,1.862,1.862,0,1,1,2.722-2.54,6.344,6.344,0,0,0,8.96.311A8.387,8.387,0,0,0,112,7.2a10.966,10.966,0,0,0-15.479-.538,14.155,14.155,0,0,0-.695,20.008l9.463,9.929a1.862,1.862,0,0,1-.063,2.633A1.891,1.891,0,0,1,103.935,39.742Z" transform="translate(-88.292 0)" fill="#e55934"/>
      <path id="Path_20" data-name="Path 20" d="M181.425,197.657a1.857,1.857,0,0,1-1.317-.546l-1.862-1.862a1.862,1.862,0,0,1,2.633-2.633l1.862,1.862a1.862,1.862,0,0,1-1.316,3.178Z" transform="translate(-158.333 -150.467)" fill="#e55934"/>
      <path id="Path_21" data-name="Path 21" d="M264.927,102.132a1.862,1.862,0,0,1-1.346-3.147l8.076-8.472a11.787,11.787,0,0,0-.594-16.645,9.057,9.057,0,0,0-12.8.443,6.873,6.873,0,0,0,.337,9.714,5.135,5.135,0,0,0,7.247-.251,1.862,1.862,0,0,1,2.724,2.54,8.865,8.865,0,0,1-12.509.436,10.6,10.6,0,0,1-.523-14.978,12.782,12.782,0,0,1,18.066-.628,15.514,15.514,0,0,1,.763,21.924l-8.09,8.487A1.862,1.862,0,0,1,264.927,102.132Z" transform="translate(-217.079 -53.041)" fill="#e55934"/>
    </g>
  </g>
</svg>
