<svg xmlns="http://www.w3.org/2000/svg" width="108.277" height="102.677" viewBox="0 0 108.277 102.677">
  <g id="_005-spoon" data-name="005-spoon" transform="translate(0 -13.222)">
    <path id="Path_22" data-name="Path 22" d="M16.8,13.222a1.868,1.868,0,0,0-1.867,1.867V35.624H11.2V15.089a1.867,1.867,0,1,0-3.734,0V35.624H3.733V15.089a1.867,1.867,0,1,0-3.733,0v28a9.313,9.313,0,0,0,7.055,9.021L5.6,54.293V92.528a125.585,125.585,0,0,0-1.867,15.9c0,4.124,2.507,7.467,5.6,7.467s5.6-3.344,5.6-7.467a125.469,125.469,0,0,0-1.867-15.9V54.293l-1.454-2.181a9.313,9.313,0,0,0,7.055-9.021v-28A1.867,1.867,0,0,0,16.8,13.222Z" fill="#f5bb00"/>
    <g id="Group_7" data-name="Group 7" transform="translate(0 13.222)">
      <path id="Path_23" data-name="Path 23" d="M75.859,15.089V35.624h1.867V15.089a1.868,1.868,0,0,0-1.867-1.867,1.823,1.823,0,0,0-.933.286A1.845,1.845,0,0,1,75.859,15.089Z" transform="translate(-59.058 -13.222)" fill="#f7c933"/>
      <path id="Path_24" data-name="Path 24" d="M40.6,15.089V35.624h1.867V15.089A1.868,1.868,0,0,0,40.6,13.222a1.823,1.823,0,0,0-.933.286A1.845,1.845,0,0,1,40.6,15.089Z" transform="translate(-31.266 -13.222)" fill="#f7c933"/>
      <path id="Path_25" data-name="Path 25" d="M9.334,108.431a125.545,125.545,0,0,1,1.867-15.9V54.292l.934-1.4-.521-.78c.179-.045.345-.123.521-.177A9.288,9.288,0,0,1,5.6,43.091V35.624H3.733V15.089a1.867,1.867,0,1,0-3.733,0v28a9.313,9.313,0,0,0,7.055,9.021L5.6,54.293V92.528a125.585,125.585,0,0,0-1.867,15.9c0,4.124,2.507,7.467,5.6,7.467a4.555,4.555,0,0,0,2.8-1.036A8.123,8.123,0,0,1,9.334,108.431Z" transform="translate(0 -13.222)" fill="#f7c933"/>
    </g>
    <path id="Path_26" data-name="Path 26" d="M420.409,61.24l-1.52-2.279c5.125-1.9,8.987-10.057,8.987-16.389,0-9.218-5.015-20.535-11.2-20.535s-11.2,11.434-11.2,20.535c0,6.332,3.862,14.485,8.987,16.389l-1.519,2.279V99.475a125.6,125.6,0,0,0-1.867,15.9c0,4.124,2.507,7.467,5.6,7.467s5.6-3.344,5.6-7.467a125.469,125.469,0,0,0-1.867-15.9V61.24h0Z" transform="translate(-319.6 -6.947)" fill="#f5bb00"/>
    <path id="Path_27" data-name="Path 27" d="M416.676,117.245a125.55,125.55,0,0,1,1.867-15.9V63.106l1.52-2.279c-5.125-1.9-8.987-10.057-8.987-16.389,0-8.528,4.4-19.1,10.047-20.4a6.646,6.646,0,0,0-4.447-2c-6.187,0-11.2,11.434-11.2,20.535,0,6.332,3.863,14.485,8.987,16.389l-1.52,2.279V99.475a125.63,125.63,0,0,0-1.867,15.9c0,4.124,2.507,7.467,5.6,7.467a4.291,4.291,0,0,0,1.619-.355A8.856,8.856,0,0,1,416.676,117.245Z" transform="translate(-319.6 -6.947)" fill="#f7c933"/>
    <circle id="Ellipse_4" data-name="Ellipse 4" cx="31.737" cy="31.737" r="31.737" transform="translate(22.402 39.357)" fill="#e55934"/>
    <path id="Path_28" data-name="Path 28" d="M113.243,175.831a31.7,31.7,0,0,1,50.114-25.845,31.717,31.717,0,1,0-44.222,44.222A31.563,31.563,0,0,1,113.243,175.831Z" transform="translate(-83.374 -97.269)" fill="#ea7a5d"/>
    <path id="Path_29" data-name="Path 29" d="M195.136,207.608a10.865,10.865,0,1,0-21.73,0,8.28,8.28,0,0,0-8.308,8.139,8.521,8.521,0,0,0,7.971,8.139v10.529h22.4V223.887a8.521,8.521,0,0,0,7.972-8.139A8.28,8.28,0,0,0,195.136,207.608Z" transform="translate(-130.133 -144.654)" fill="#f5bb00"/>
    <path id="Path_30" data-name="Path 30" d="M182.433,234.418v-6.459c-3.734,0-8.224-3.64-8.224-8.139a8.17,8.17,0,0,1,8.181-8.14,10.8,10.8,0,0,1,10.456-10.848,10.892,10.892,0,0,0-19.4,6.778,8.286,8.286,0,0,0-8.315,8.139,8.514,8.514,0,0,0,7.964,8.139v10.529h9.334Z" transform="translate(-130.161 -144.656)" fill="#f7c933"/>
  </g>
</svg>
